<svg viewBox="0 0 109.9 107.3" xmlns="http://www.w3.org/2000/svg">
  <style>
    .compassion-st0,
    .compassion-st1 {
      fill: none;
      stroke: #2d3748;
      stroke-width: 2;
      stroke-linecap: square;
      stroke-linejoin: round;
      stroke-miterlimit: 10;
    }
    .compassion-st1{
      stroke: #2d3748;
    }
  </style>
  <ellipse class="compassion-st0" cx="42.5" cy="30" rx="5" ry="6.3"/>
  <ellipse class="compassion-st1" cx="65.7" cy="23.7" rx="6.5" ry="7.4"/>
  <path class="compassion-st1" style="stroke:#005b94;" d="M33.9 43.6l-1 .9c-1 .9-2.6.9-3.5-.1s-.9-2.6.1-3.5l1-.9c1-.9 2.6-.9 3.5.1 1 .9.9 2.5-.1 3.5z"/>
  <path class="compassion-st0" d="M28.9 48v21.7h2M32.2 53h2.3v37m7.7 1V67.7m8.3 22.7V52.7h2.4"/>
  <path class="compassion-st0" d="M36.5 39.7h11.7c2.7 0 8 3.3 8 8v22h-2"/>
  <path class="compassion-st1" d="M49.7 37.3s2.2-2.8 5-2.8h17.8c4.3 0 8.8 6.5 8.8 9.8v22h-2.8m-22 6.7v17.8m9 .2V66"/>
  <path class="compassion-st1" d="M74.5 90.8v-41H77"/>
  <path d="M64.2 42.4h2.9v2.9h-2.9zm0 6h2.9v2.9h-2.9zm0 6h2.9v2.9h-2.9z" fill="#005b94"/>
</svg>