<svg xmlns="http://www.w3.org/2000/svg" viewBox="0 0 109.9 107.3">
  <g>
    <path class="fill-blue" d="M72.2 81c-.3 0-.7-.2-.8-.6-.1-.4.1-.9.5-1l2.6-.8c.4-.1.9.1 1 .5.1.4-.1.9-.5 1l-2.6.9h-.2z"/>
    <path class="fill-darkgray" d="M80 26.5c-7.5-7-17.3-10.5-27.6-9.8-18.3 1.3-33.2 16.6-34 34.9-.4 10 3.1 19.5 9.9 26.8.7.7 1.6 1 2.5.7.4-.1.7-.3 1-.5.1 0 .1.1.2.1l7 2.7c.1 0 .2.1.4.1.4 0 .8-.2.9-.6.2-.5-.1-1.1-.6-1.3L32.8 77l2.9-12h5c.4 0 .7-.2.9-.5 0 0 1.8-2.8 3.8-2.8h6c.6 0 1-.4 1-1s-.4-1-1-1h-6c-2.5 0-4.5 2.3-5.2 3.3H36c0-.4-.1-.8-.2-1.1-1.2-2.7-1.8-5.6-1.8-8.6 0-6 2.5-11.7 7-15.6 4.5-4 10.3-5.9 16.4-5.2 9.7 1.1 17.5 8.9 18.5 18.7.5 4.7-.6 9.3-3 13.2-.4.6-.5 1.3-.3 2l3.1 12.1c.2.9.9 1.6 1.8 1.9.2.1.5.1.7.1.7 0 1.3-.3 1.8-.8 7.3-7.4 11.6-17.2 11.6-26.3 0-10.2-4.2-20-11.6-26.9zm-1.4 51.7c-.2.2-.4.2-.5.1-.1 0-.3-.1-.4-.4l-3.1-12.1c0-.1 0-.3.1-.5C77.4 61 78.5 56 78 50.8c-1.1-10.7-9.6-19.3-20.3-20.4-6.6-.7-13 1.3-18 5.7-4.9 4.4-7.7 10.7-7.7 17.2 0 3.3.7 6.4 2 9.4.1.1.1.2 0 .4l-3.3 13.7c-.1.3-.3.4-.4.4-.1 0-.4.1-.5-.1-6.5-6.9-9.8-15.9-9.4-25.3.8-17.3 14.9-31.8 32.2-33 9.7-.7 19 2.6 26.1 9.2 7 6.5 11 15.8 11 25.3-.1 8.6-4.2 17.9-11.1 24.9z"/>
    <path class="fill-darkgray" d="M61.3 88h-.2c-.8-.1-1.6-.5-2.1-1.1l-.8-.9c-.4-.4-.3-1.1.1-1.4.4-.3 1.1-.3 1.4.1l.8.9c.2.2.4.3.7.4.3 0 .5-.1.7-.2l.2-.2c.5-.4.5-1.2.1-1.7l-6.4-7.5c-.4-.4-.3-1 .1-1.4.4-.4 1-.3 1.4.1l6.9 7.8c.2.2.4.3.6.3.2 0 .4-.1.6-.2.4-.4.4-1 0-1.4l-6-6.4c-.4-.4-.4-1 0-1.4.4-.4 1-.4 1.4 0l6.6 7c.5.5 1 .3 1.3-.1l.1-.1c.2-.2.3-.5.3-.9s-.1-.7-.4-1l-4.8-5.4c-.4-.4-.3-1 .1-1.4.4-.4 1-.3 1.4.1l4.7 5.3c.6.6.9 1.4.9 2.3s-.4 1.8-1 2.4l-.2.2c-.7.6-1.6.9-2.5.7-.1.5-.4 1-.8 1.4-.6.5-1.3.8-2.1.8h-.2c-.1.8-.4 1.5-1.1 2l-.2.2c-.2.4-.9.7-1.6.7z"/>
    <path class="fill-blue" d="M48.3 72.6c-1.4 0-2.8-.4-3.4-1.1-.6-.6-.6-1.4 0-2.1.4-.4 1.4-1.4 2.7-2.8 1.3-1.3 2.7-2.7 3.8-3.9 1.4-1.5 3.4-2.3 5.4-2.3H62c3.9 0 5.9 4 6.5 5.5h2.1c.4 0 .8.4.8.8s-.4.8-.8.8H68c-.3 0-.6-.2-.8-.5 0 0-1.7-5-5.2-5h-5.1c-1.6 0-3.1.7-4.2 1.8-1.1 1.2-2.6 2.6-3.9 3.9-1.2 1.2-2.3 2.3-2.6 2.7.2.1.6.4 1.3.5 1.2.2 2.3 0 2.9-.4 1.8-1.5 5.4-4.4 5.4-4.4.2-.2.5-.2.7-.2.2.1.4.2.5.5 0 .1 1.1 2.7 3.5 2.7 2.6 0 3.6-.9 3.6-.9.3-.3.8-.3 1.1 0 .3.3.3.8 0 1.1-.1.1-1.5 1.4-4.7 1.4-2.4 0-3.8-1.7-4.5-2.8-1.2.9-3.3 2.7-4.7 3.8-.7.6-1.9.9-3 .9z"/>
    <path class="fill-blue" d="M58.3 81.7c-.5-.5-1.2-.7-1.9-.6-.2 0-.5.1-.7.2.2-1-.1-2-.9-2.7-1-.8-2.4-.8-3.4-.1v-.3c-.1-.7-.4-1.4-1-1.9s-1.3-.7-2-.6c-.7.1-1.4.4-1.9 1l-.1.1c-.1-.4-.4-.8-.8-1.2-.5-.4-1.2-.6-1.9-.6-.7.1-1.3.4-1.7.9l-2.9 3.4c-.9 1.1-.8 2.7.3 3.6.5.4 1 .6 1.6.6h.2c.2 0 .5-.1.7-.2.1.7.4 1.3.9 1.8.5.4 1.1.6 1.8.6.6 0 1.1-.2 1.6-.5v.3c.1.7.4 1.4 1 1.9.5.4 1.1.6 1.8.6h.2c.3 0 .7-.1 1-.3-.1.9.2 1.7.9 2.3.5.4 1.1.6 1.7.6h.2c.7-.1 1.3-.4 1.8-.9l3.7-4.4c1-1 .9-2.7-.2-3.6zm-17.7-.1c-.4-.3-.4-.9-.1-1.3l2.9-3.4c.2-.2.4-.3.6-.3h.1c.2 0 .4.1.6.2.4.3.4.9.1 1.3l-2.9 3.4c-.3.4-.9.4-1.3.1zm3.4 2.2c-.2-.2-.4-.5-.4-.8 0-.3.1-.6.3-.8l3.9-4.6c.2-.2.5-.4.8-.4h.1c.3 0 .5.1.7.3.2.2.4.5.4.8s-.1.6-.3.8l-3.9 4.6c-.4.5-1.1.5-1.6.1zm5.2 2.6c-.3 0-.6-.1-.8-.3-.2-.2-.4-.5-.4-.8s.1-.6.3-.8l3.9-4.6c.2-.3.5-.4.9-.4.3 0 .5.1.7.3.5.4.5 1.1.1 1.6l-4 4.6c-.2.2-.4.4-.7.4zm8.1-2.1l-3.7 4.4c-.2.2-.4.3-.7.4-.3 0-.5-.1-.7-.2-.4-.4-.5-1-.1-1.4l3.7-4.4c.2-.2.4-.3.7-.4h.1c.2 0 .5.1.7.2.4.4.4 1 0 1.4z"/>
  </g>
</svg>