<svg xmlns="http://www.w3.org/2000/svg" viewBox="0 0 109.9 107.3">
  <style>
    .cour-st0{
      fill:none;
      stroke:#2d3748;
      stroke-width:1.6;
      stroke-miterlimit:10;
    }
  </style>
  <g>
    <g>
      <path class="cour-st0" d="M62.5 31.5L65.1 68"/>
      <path class="cour-st0" d="M26.1 52.9l37.5 18.3"/>
      <path class="cour-st0" d="M34.9 46.7L64 70.6"/>
      <path class="cour-st0" d="M53.5 37.3l11.8 31.6"/>
      <path class="cour-st0" d="M44.6 41.7l20 28.1"/>
    </g>
    <path d="M60.4 81.2c-.1-.2-5.8.7-7.3.6-1-.1-1.8-.1-3.2-.8-1.3-.7-6.7-3.5-8.5-4.7-2.1-1.4-3.8-2.6-2.5-4.5 1.2-1.7 3.5-1.1 4.6-.5 1.3.6 6 3.3 8.4 4.4 2.1.9 6.8-1.3 7.4-1.6.8-.3 2.3-1 2.5-1.2 2.9-3.2 4.2-6 4.2-6s-1.1-3.4-.8-7.7c.1-.8.8-8 1.2-9.2.3-1 1.2-1.5 2.1-1.5 1.1 0 1.8 1 1.8 2.2 0 1.1-.4 6.5-.4 8.4 0 2 .9 5.8 2.2 7.4.7 1.3 3.2 3.2 4.8 3.4 1.7.3 4.3.1 5.7-.4 1.8-.9 4.3-2.3 5.1-2.9.5-.3 1.7-.4 2.4.2.9.9.5 2.3-.2 3.1-.8.8-4 3.2-6.1 4-2.1.9-5.8 1.5-7.8 1.3 0 .1-1.3 2.2-2 2.9-.6 1.2-12 10-16 11.4-.8.3-1.9.6-2.8.5-2.4.2-10.3-3.3-11.2-3.7-1.8-.8-3-2-2.1-3.6.9-1.6 3.1-1.8 4.6-1.1 0 0 5.2 2.1 7.8 2.7 1.2.3 6.2-2.9 6.1-3.1z" fill="none" stroke="#2d3748" stroke-width="1.6" stroke-linecap="round" stroke-linejoin="round" stroke-miterlimit="10"/>
    <ellipse transform="rotate(19.738 79.318 60.99)" class="cour-st0" cx="79.3" cy="61" rx="5.7" ry="6.5"/>
    <g>
      <path d="M68.9 75.8c.7 0 1.4.1 2.8-.2 1.5-.3 2.1-1 2.3-1.6s0-1.3-.6-1.8-1.7-.1-1.7-.1.1-1.1-.5-1.6c-.7-.5-1.3-.5-1.9-.1-.6.3-1.3 1.2-.9 2.7.2 1.5.4 2.4.5 2.7z" fill="#005b94"/>
    </g>
    <path d="M63.8 30.6c-.4.9-2.4 1.2-3.2 1.3-1 .1-3.4.3-4.9 3.1-.6 1.1-.7 2.3-4.1 2.7 0 0-3.7-1-5.1 2.2-.1.2-.5 1.4-1.6 1.8-1.2.5-2.4-.1-3-.1-1.4 0-2.6.2-3.7 2.3-.2.4-1 2.2-2.3 2.7-.8.3-2.8.4-3.7.5-1.3.1-2.3.7-3.6 3.2-.8 1.6-2.3 2.9-3.5 3.2 0 0-.9.2-1.4-.2-3.5-2.7-4.6-8-4.6-12.7 0-12.7 11.2-23.1 23.9-23.1 8.9 0 17.9 3.7 20.6 12 .3.4.2 1.1.2 1.1z" fill="none" stroke="#005b94" stroke-width="2" stroke-linecap="round" stroke-linejoin="round" stroke-miterlimit="10"/>
  </g>
</svg>