<svg xmlns="http://www.w3.org/2000/svg" viewBox="0 0 109.9 107.3"><path class="fill-darkgray" d="M32.8 94h-2V48c0-12.7 9.8-22.2 22.8-22.2 13.9 0 19.7 10 21.2 13.1.8 1.7 1.1 3.7 1.5 5.6.3 1.6.5 3.3 1.1 4.7 1.2 3.2 6.1 16.9 6.3 17.5.1.3.1.6-.1.9s-.7.4-1 .4h-6v9.2c-.1 2-1.3 5.8-5.2 5.8H60.8v10.8h-2V82c0-.6.4-1 1-1h11.5c3 0 3.2-3.4 3.3-3.8V67c0-.6.4-1 1-1h5.6c-1.3-3.6-4.8-13.5-5.8-16.1-.6-1.6-.9-3.4-1.2-5.1-.3-1.9-.6-3.6-1.3-5.1-1.3-2.8-6.6-11.9-19.3-11.9-10.1 0-20.8 7.1-20.8 20.2v46z"/><path class="fill-blue" d="M23.6 55.5h-9c-.6 0-1-.4-1-1s.4-1 1-1h9c.6 0 1 .4 1 1s-.5 1-1 1zM26.6 41.3c-.2 0-.3 0-.5-.1l-8-4.5c-.5-.3-.7-.9-.4-1.4.3-.5.9-.7 1.4-.4l8 4.5c.5.3.7.9.4 1.4-.2.3-.6.5-.9.5zM37.3 29.3c-.3 0-.6-.1-.8-.3l-6-7c-.4-.4-.3-1 .1-1.4.4-.4 1.1-.3 1.4.1l6 7c.4.4.3 1-.1 1.4-.1.1-.3.2-.6.2zM54.6 24.3c-.6 0-1-.4-1-1v-9c0-.6.4-1 1-1s1 .4 1 1v9c0 .5-.5 1-1 1zM71.3 29.3c-.2 0-.5-.1-.7-.3-.4-.4-.4-1-.1-1.4l6-6.8c.4-.4 1-.5 1.4-.1.4.4.4 1 .1 1.4l-6 6.8c-.1.3-.4.4-.7.4zM81.6 41.8c-.4 0-.7-.2-.9-.5-.3-.5-.1-1.1.4-1.4l8.2-4.5c.5-.3 1.1-.1 1.4.4.3.5.1 1.1-.4 1.4l-8.2 4.5c-.2 0-.3.1-.5.1zM95.3 55.3h-9.8c-.6 0-1-.4-1-1s.4-1 1-1h9.8c.6 0 1 .4 1 1s-.4 1-1 1zM51.6 57.7v-1.1c0-.9.2-1.8.6-2.4s1.1-1.4 2.2-2.2c1-.7 1.7-1.3 2-1.8s.5-1 .5-1.5c0-.6-.2-1.1-.7-1.5s-1.1-.5-2-.5c-1.5 0-3.1.5-5 1.4l-1.6-3.2c2.2-1.2 4.5-1.8 6.9-1.8 2 0 3.6.5 4.8 1.5s1.8 2.3 1.8 3.9c0 1.1-.2 2-.7 2.8S59 53 57.6 53.9c-.9.7-1.5 1.2-1.8 1.6s-.4.8-.4 1.4v.9h-3.8zm-.4 5c0-.8.2-1.4.7-1.9s1.1-.6 1.9-.6c.8 0 1.4.2 1.9.6s.7 1 .7 1.8-.2 1.4-.7 1.8-1.1.7-1.9.7c-.8 0-1.5-.2-1.9-.7s-.7-.9-.7-1.7z"/></svg>