<svg xmlns="http://www.w3.org/2000/svg" viewBox="0 0 109.9 107.3">
  <style>
    .discn-st0 {
      clip-path:url(#XMLID_86_);
    }
  </style>
  <g>
    <g>
      <defs>
        <circle id="XMLID_60_" cx="55" cy="53.6" r="20.7"/>
      </defs>
      <clipPath id="XMLID_86_">
        <use xlink:href="#XMLID_60_" overflow="visible"/>
      </clipPath>
      <path class="discn-st0 fill-blue" d="M57.7 67.6l-2.8-.8c-.1-1.1-.4-2.2-.8-3.2l2.1-2.1c.5-.5.5-1.2.1-1.7l-2-2.6c-.4-.5-1.1-.7-1.7-.4l-2.5 1.4c-.4-.4-.9-.7-1.4-1-.5-.3-1-.5-1.5-.8v-2.9c0-.7-.5-1.2-1.1-1.3l-3.1-.5c-.7-.1-1.3.3-1.5.9l-.8 2.7c-1.1.1-2.2.4-3.2.8l-2-2.1c-.5-.5-1.2-.5-1.7-.1l-2.6 2c-.5.4-.7 1.1-.4 1.7l1.4 2.5c-.3.4-.7.9-.9 1.3-.3.5-.5 1-.8 1.5h-2.9c-.7 0-1.2.5-1.3 1.1l-.5 3.2c-.1.7.3 1.3.9 1.5l2.8.8c.1 1.1.4 2.2.8 3.2l-2.2 2.1c-.5.5-.5 1.2-.1 1.7l1.9 2.6c.4.5 1.1.7 1.7.4l2.6-1.4c.4.3.9.6 1.3.9.5.3 1 .5 1.5.8v3.1c0 .7.5 1.2 1.1 1.3l3.2.5h.2c.6 0 1.1-.4 1.3-1l.8-2.9c1.1-.1 2.1-.4 3.1-.8l2.1 2.2c.5.5 1.2.5 1.7.1l2.6-2c.5-.4.7-1.1.4-1.7L52.1 76c.4-.4.7-.9 1-1.4.3-.5.5-.9.8-1.4h3c.7 0 1.2-.5 1.3-1.1l.5-3.3c.1-.4-.3-1-1-1.2zm-8.6 4.8c-2.3 3.8-7.4 5.1-11.2 2.7-3.8-2.3-5.1-7.4-2.7-11.2 2.3-3.8 7.4-5.1 11.2-2.7 3.8 2.4 5 7.4 2.7 11.2z"/>
      <path class="discn-st0 fill-blue" d="M71.5 60.6l-1.3-.4c0-.5-.2-1-.3-1.5l1-.9c.1-.1.1-.3 0-.4l-.8-1.1c-.1-.1-.3-.2-.4-.1l-1.2.6c-.2-.2-.4-.3-.6-.5-.2-.1-.5-.3-.7-.4v-1.3c0-.2-.1-.3-.3-.3l-1.2-.3c-.2 0-.3.1-.4.2l-.4 1.2c-.5 0-1.1.2-1.5.4l-.9-1c-.1-.1-.3-.1-.4 0l-1.1.8c-.1.1-.2.3-.1.4l.6 1.2c-.2.2-.3.4-.5.6-.1.2-.3.5-.4.7h-1.3c-.2 0-.3.1-.3.3l-.2 1.3c0 .2.1.3.2.4l1.3.4c0 .5.2 1 .4 1.5l-1 .9c-.1.1-.1.3 0 .4l.8 1.1c.1.1.3.2.4.1l1.2-.6c.2.2.4.3.6.5.2.1.5.3.7.4v1.4c0 .2.1.3.3.3l1.3.2c.2 0 .3-.1.4-.2l.4-1.3c.5 0 1-.2 1.5-.3l1 1c.1.1.3.1.4 0l1.1-.8c.1-.1.2-.3.1-.4l-.9-1.3c.2-.2.3-.4.5-.6.1-.2.3-.4.4-.7h1.4c.2 0 .3-.1.3-.3l.2-1.3c0-.1-.1-.3-.3-.3zM67.6 62c-.8 1.3-2.5 1.7-3.8.9-1.3-.8-1.7-2.5-.9-3.8.8-1.3 2.5-1.7 3.8-.9 1.3.8 1.7 2.5.9 3.8z"/>
      <path class="discn-st0 fill-blue" d="M66.6 45.5l-.6-2.3c-.1-.3-.3-.5-.6-.4l-2.2.2c-.2-.4-.4-.8-.7-1.2-.3-.4-.5-.7-.9-1l.9-2.1c.1-.3 0-.5-.2-.7l-1.9-1.2c-.2-.1-.5-.1-.7.1l-1.4 1.7c-.9-.3-1.8-.5-2.7-.5l-.8-2.1c-.1-.3-.4-.4-.6-.3l-2.2.6c-.3.1-.5.3-.4.6l.2 2.2c-.4.2-.8.4-1.1.7-.4.3-.7.6-1 .9l-2.1-.9c-.3-.1-.5 0-.7.2l-1.2 1.9c-.1.2-.1.5.1.7l1.7 1.5c-.3.8-.4 1.7-.5 2.6l-2.2.8c-.3.1-.4.4-.3.6l.5 2.2c.1.3.3.5.6.4l2.3-.2c.2.4.4.8.7 1.1.3.4.5.7.9 1l-1 2.2c-.1.3 0 .5.2.7l1.9 1.2c.2.1.5.1.7-.1l1.5-1.8c.8.3 1.7.4 2.6.5l.8 2.2c.1.3.4.4.6.3l2.2-.5c.3-.1.5-.3.4-.6l-.2-2.3c.4-.2.8-.4 1.2-.7.4-.3.7-.5 1-.8l2.1.9c.3.1.5 0 .7-.2l1.2-1.9c.1-.2.1-.5-.1-.7l-1.8-1.5c.3-.8.5-1.7.5-2.6l2.1-.8c.4-.1.5-.4.5-.6zm-6.3 4.3c-1.7 2.6-5.1 3.4-7.8 1.8s-3.4-5.1-1.8-7.8c1.7-2.6 5.1-3.4 7.8-1.8 2.7 1.7 3.5 5.2 1.8 7.8z"/>
    </g>
    <g>
      <path class="fill-darkgray" d="M55 30.8c-12 0-27 8.8-38.1 22.4l-.4.5.4.5C28.7 68.6 42.2 76.5 55 76.5s26.3-7.9 38.1-22.4l.4-.5-.4-.5C82 39.5 67 30.8 55 30.8zm0 42.7c-11 0-19.9-8.9-19.9-19.9S44 33.8 55 33.8c11 0 19.9 8.9 19.9 19.9s-9 19.8-19.9 19.8zM18.5 53.6C27 43.4 38.1 35.9 47.9 33.4c-8.4 2.9-14.5 10.9-14.5 20.3 0 9.9 6.8 18.3 15.9 20.7-10.3-1.9-21.1-9.1-30.8-20.8zm42 20.8c9.2-2.5 15.9-10.8 15.9-20.7 0-9.5-6.2-17.6-14.8-20.4 10 2.4 21 9.9 29.8 20.4C81.7 65.3 71 72.5 60.5 74.4z"/>
      <path class="fill-darkgray" d="M96.5 53.1C84.4 38.3 68.1 28.7 55 28.7c-13.1 0-29.4 9.6-41.6 24.4l-.4.5.4.5C26.3 69.9 41 78.6 55 78.6s28.7-8.7 41.6-24.4l.4-.5-.5-.6zM55 76.9c-13.3 0-27.4-8.3-39.9-23.3 11.6-14 27.6-23.3 39.9-23.3 12.5 0 28.1 9.1 39.9 23.3C82.4 68.7 68.2 76.9 55 76.9z"/>
    </g>
  </g>
</svg>