<svg xmlns="http://www.w3.org/2000/svg" viewBox="0 0 109.9 107.3">
  <g>
    <path d="M87.2 57.5c.8-.8 1.1-2 .9-3.3-.2-1.1-.7-2.1-1.4-2.8-1.2-1.2-4.2-2-5.6-.5-.5.5-1.9 1.8-3.3 3.1V32.2c0-1.3-1.9-3.2-3.7-3.2-.7 0-1.3.2-1.9.4v-2.5c0-1.7-2.1-3.4-4.1-3.4-1.9 0-4.1 1.5-4.1 3.4v2.8c-.5-.2-1.2-.4-1.9-.4-1.5 0-3.7 1.3-3.7 3.1v2.4c-.5-.2-1-.3-1.6-.3-1.8 0-3.4 1.8-3.4 3.2v8.8l-1.2.3v-2.4c0-1.8-2.1-3.7-4.1-3.7-1.8 0-4 1.5-4 3.3v2.5c-.6-.3-1.3-.4-1.9-.4-1.8 0-3.7 1.9-3.7 3.2V71c-1.1-1-2.5-2.2-3-2.8-1.4-1.4-4.6-1-5.9.3-.7.7-1.2 1.7-1.4 2.8-.2 1.3.1 2.5.9 3.3 3.1 3.1 9.4 9.8 10.7 11.2v3.8h-1.4v4.2h23.7v-4.2h-1.8V86c.8-.7 2.7-2.4 2.7-4.5v-4.8h15.1v-4.2h-1.4v-3.8c1.1-1.4 7.4-8.1 10.5-11.2zm-26.2 6v18.1c0 1.4-1.6 2.8-2.3 3.3l-.4.3v4.5H41.5V85l-.2-.3c-.1-.1-7.6-8.1-11-11.5-.5-.5-.5-1.2-.4-1.7.1-.8.5-1.5.9-1.8.3-.3 1-.6 1.7-.6.7-.1 1.3.1 1.6.3 1 1 4.5 4 4.6 4.2l1.5 1.3V49.3c.1-.4 1.1-1.4 1.9-1.4.9 0 1.9.6 1.9 1.1v14.3h1.8V43.9c0-.5 1.1-1.5 2.2-1.5s2.3 1.1 2.3 1.8v19h1.8c0-.5.2-12.4.2-14 0-1 1.1-1.1 1.8-1.1s1.9.8 1.9 1.3v13.8h1.8v-8.7c0-1.2 1.3-1.3 1.7-1.3.9 0 1.5.8 1.5 1.1v9.2zm13.9 4.3l-.2.2v4.5H62.8V54.3c0-1.3-1.4-2.9-3.3-2.9-.6 0-1.2.1-1.7.3v-2.4c0-1.4-1.4-2.5-2.7-2.9v-8.9c0-.3.7-1.3 1.6-1.3.6 0 1.6.2 1.6 1.3v8.7h1.8V32.4c0-.5 1.2-1.3 1.9-1.3s1.8.1 1.8 1.1c0 1.7.2 13.5.2 14h1.8V26.9c0-.7 1.2-1.6 2.3-1.6 1.1 0 2.3 1 2.3 1.6v19.3h1.8V31.9c0-.5 1-1.1 1.9-1.1.9 0 1.9 1.1 1.9 1.4v23.4c-.3.3-.5.5-.7.6H72c-1.6 0-3.2.7-4.3 1.9L65.9 60c-.3.4-.3.9.1 1.3.4.3.9.3 1.3-.1l1.8-1.9c.8-.8 1.8-1.3 3-1.3h4l.3-.2c.2-.2 5-4.6 6-5.6.5-.5 2.3-.2 3.1.5.3.3.7 1 .9 1.8.1.5.1 1.3-.4 1.7-3.5 3.5-11 11.5-11.1 11.6z" fill="#2d3748"/>
    <path class="fill-blue" d="M36.1 39.4H22.8c-.6 0-1-.4-1-1s.4-1 1-1h13.3c.6 0 1 .4 1 1s-.5 1-1 1z"/>
    <path class="fill-blue" d="M38.4 30.1c-.3 0-.5-.1-.7-.3l-8.3-8.7c-.4-.4-.4-1 0-1.4.4-.4 1-.4 1.4 0l8.3 8.7c.4.4.4 1 0 1.4-.2.2-.4.3-.7.3z"/>
    <path class="fill-blue" d="M48.9 27.6c-.6 0-1-.4-1-1v-12c0-.6.4-1 1-1s1 .4 1 1v12c0 .5-.4 1-1 1z"/>
  </g>
</svg>