<svg xmlns="http://www.w3.org/2000/svg" viewBox="0 0 109.9 107.3">
  <g>
    <path class="fill-blue" d="M38 92.8c-.5 0-.7-.4-.7-.8l2.5-25c0-.4.4-.7.8-.6.4 0 .7.4.6.8l-2.5 25c0 .3-.3.6-.7.6z"/>
    <path class="fill-blue" d="M48.1 59.3c-.2 0-.5-.1-.6-.3l-1-1.6c-.1-.2-.1-.4-.1-.6l2.7-6.4c.1-.4.6-.5.9-.4.4.2.5.6.4.9L47.8 57l.8 1.3c.2.3.1.8-.2 1 0-.1-.2 0-.3 0z"/>
    <path class="fill-blue" d="M70.1 92l-7.7-41.7.6-6.3v-.4L58 9.2l-3.6.5 3.1 20.9-6.3 14.8c-.2.4 0 .8.4.9.1 0 .2.1.3.1.3 0 .5-.2.6-.4l5.4-12.7 1.6 10.5-.6 6.4v.5l4 21.8 1.8 2.1-1.1 1.7 3.2 17.5c.1.7.6 1.2 1.2 1.4l8.9 3 1.2-3.5-8-2.7z"/>
    <path class="fill-darkgray" d="M66.5 85.6c0-.2-.2-.5-.4-.6l-4-2.7-4.5-6.8 7 1.4c.2 0 .5 0 .7-.2.2-.2.3-.4.3-.6V74c0-.3-.1-.5-.3-.6l-3.5-2.7c-.1-1.5-.6-7.1-.6-8.9 0-1.2 0-4.4-3.7-4.5-1.4 0-7.5.6-9.8.9l.6-7.3c1.4.3 4.1.8 5.1.9 2.5.3 4.7-3.9 6.1-6.7.3-.5.5-1 .7-1.3.5-.9.4-2.5-.5-3.3-.4-.4-1-.6-1.7-.5-.8.1-1.7.5-2.3 1.3L53.3 45c-.3.5-2.5.3-5.9-1.2-.4-.2-.9 0-1.1.4-.2.4 0 .9.4 1.1 2.5 1.1 6.8 2.6 7.9.5l2.3-3.7c.3-.3.7-.6 1.1-.6.2 0 .4 0 .5.1.4.3.3 1.1.2 1.3-.2.3-.5.8-.8 1.4-.9 1.8-3.1 5.9-4.6 5.8-1.2-.1-5.8-1.1-5.8-1.1-.2 0-.5 0-.6.1-.2.1-.3.3-.3.6L46 59c0 .2.1.5.2.6.2.2.4.3.6.2 3.1-.3 9.2-1 10.6-1 1.4 0 2.1.5 2.1 2.9 0 2.1.6 9.1.6 9.4 0 .2.1.4.3.6l3.5 2.6v.8l-6.3-1.3-.5-10.2c0-.2-.1-.4-.3-.6s-.4-.2-.6-.2c0 0-4.1.8-7.4 1.6-.3.1-.5.3-.6.5s-.1.5.1.7l6.3 8.1 6.2 9.5c.1.1.1.2.2.2l3.8 2.6.1 1.1-6-1-7.8-10.8-.1-.1C45.2 70 38.9 64 38.2 62.8v-2.7c-.1-4-.2-10.7.1-14.9.1-1.6.3-2.9.7-3.9 1.3 1.2 2.9 1.9 4.5 1.9.9 0 1.8-.2 2.6-.7 2.8-1.6 3.5-5.5 1.7-8.6-.5-.8-1.1-1.6-1.8-2.1 2.1-2.8 3.9-5.6 5.3-7.8.9-1.4 1.6-2.5 2.2-3.3.2-.2.4-.4.7-.4.3 0 .6 0 .9.3.6.5.3 1.3.1 1.5l-6.1 11c-.2.4-.1.9.3 1.1.1.1.3.1.4.1.3 0 .6-.1.7-.4l6.1-11c.5-1 .7-2.5-.6-3.5-.6-.5-1.3-.7-2.1-.6-.7.1-1.3.5-1.7 1-.6.8-1.3 1.9-2.2 3.3-1.4 2.2-3.2 5-5.3 7.8-1.7-.8-3.6-.8-5.1.1-2.8 1.6-3.5 5.5-1.7 8.6l.1.1c-.6 1.4-1 3.1-1.1 5.3-.3 3.8-.2 9.7-.2 13.7-.1 0-.2.1-.3.2l-3.4 3c-.6.5-.9 1.2-.9 2s.3 1.5.8 2l2.6 2.5c.5.5 1.2.8 1.9.8.6 0 1.2-.2 1.7-.6l1.2-1c.1 0 .1-.1.1-.2 2 2 5 4.8 9.7 9l7.9 11c.1.2.3.3.5.3l7.3 1.3h.1c.2 0 .4-.1.5-.2.2-.2.3-.4.3-.7l-.2-2.5zM50.4 65.8c2-.5 4.1-.9 5.2-1.1L56 73l-5.6-7.2zM40.3 32.4c2-1.2 4.7-.1 6.1 2.3 1.4 2.4.9 5.3-1.1 6.5-2 1.2-4.7.1-6.1-2.3-1.4-2.4-.9-5.3 1.1-6.5zm-2.4 34.9c-.4.4-1.1.3-1.5-.1l-2.6-2.5c-.2-.2-.4-.5-.3-.8 0-.3.1-.6.4-.8l2.7-2.3v2.1c0 .2 0 .7 2.6 3.3h-.1l-1.2 1.1z" />
  </g>
</svg>