<svg xmlns="http://www.w3.org/2000/svg" viewBox="0 0 109.9 107.3"><path class="fill-darkgray" d="M30 32.7c-3.9 0-7-3.6-7-8s3.1-8 7-8 7 3.6 7 8-3.2 8-7 8zm0-14c-2.8 0-5 2.7-5 6s2.2 6 5 6 5-2.7 5-6-2.3-6-5-6zM18.6 67.7H15c-.6 0-1-.4-1-1V46c0-5.5 5.1-11.7 12-11.7h32.5v2H26c-5.7 0-10 5.1-10 9.7v19.7h2.7v2z"/><path class="fill-darkgray" d="M22.3 90h-2V49.1c-.1-.2-.3-.8-.7-.8h-1v-2h1c1.7 0 2.5 1.6 2.6 2.5V90zM29 64h2v26h-2zM40 68.1h-2V43.3c0-.5.4-1 1-1l11.1-.3.1 2-10.2.3v23.8zM38 82.3h2V90h-2z"/><path class="fill-blue" d="M96 57.7c0-14.3-11.7-26-26-26s-26 11.7-26 26c0 4.4 1.1 8.6 3.1 12.3l-.9.5-5.1-2.4c-.3-.1-.6-.1-.9 0l-6 3.3c-.3.2-.5.5-.5.8 0 .3.1.7.4.9l3.4 2.4-1 .6c-.5.3-.6.9-.4 1.4.2.3.5.5.9.5.2 0 .3 0 .5-.1l1.1-.6.6 4.1c.1.3.3.6.6.8.1.1.3.1.4.1.2 0 .4-.1.5-.2l5.5-3.5c.3-.2.4-.5.5-.8l.3-5.4 1.1-.7c2 3.2 4.7 5.8 7.9 7.9-.5 1.1-2.3 4.9-2.9 6-.4.9-.8 2.6 1.7 4.3.7.4 1.6.7 2.5.8h.3c1 0 1.9-.4 2.3-1.1.7-1 3-4.7 3-4.7l-1.7-1.1s-2.3 3.7-3 4.6c-.1.1-.4.2-.8.2-.5 0-1.1-.2-1.5-.5-1.4-.9-1.1-1.5-1-1.7.6-1.1 2.2-4.6 2.8-5.9 3.7 2 7.9 3.1 12.3 3.1 4.3 0 8.3-1 11.9-2.9.7 1.4 2.2 4.6 2.7 5.7.1.3.4.8-1 1.7-.4.2-1 .4-1.5.5-.5 0-.7-.1-.8-.2-.7-1-3-4.6-3-4.6l-1.7 1.1s2.3 3.7 3 4.7c.5.7 1.3 1.1 2.3 1.1h.3c.9-.1 1.8-.3 2.5-.8 2.5-1.7 2.1-3.4 1.7-4.3-.5-1-2.1-4.4-2.7-5.7C91 75.2 96 67 96 57.7zM36.5 72.4l4.2-2.3 3.4 1.6-4.7 2.8-2.9-2.1zm8.2 4.7l-3.8 2.4-.5-3.3 4.5-2.6-.2 3.5zM70 81.7c-8.5 0-15.9-4.4-20.2-11l5.2-3c3.2 4.9 8.7 8.1 15 8.1 9.9 0 18-8.1 18-18s-8.1-18-18-18-18 8.1-18 18c0 3 .7 5.7 2 8.2l-5.2 3C47 65.6 46 61.7 46 57.7c0-13.2 10.8-24 24-24s24 10.8 24 24-10.8 24-24 24zm.8-24.5c-.3-.5-.9-.6-1.4-.4l-5.7 3.3c-.3-.8-.5-1.6-.5-2.5a6.7 6.7 0 1 1 6.7 6.7c-2.1 0-4-1-5.2-2.5l5.7-3.3c.5-.3.7-.9.4-1.3zm-.8 9.1c4.8 0 8.7-3.9 8.7-8.7S74.7 49 70 49s-8.7 3.9-8.7 8.7c0 1.2.3 2.4.7 3.5l-6.3 3.7c-1.1-2.2-1.7-4.6-1.7-7.2 0-8.8 7.2-16 16-16s16 7.2 16 16-7.2 16-16 16c-5.5 0-10.4-2.8-13.3-7.1l6.4-3.7c1.5 2.1 4 3.4 6.9 3.4z"/></svg>