<svg xmlns="http://www.w3.org/2000/svg" viewBox="0 0 109.9 107.3">
  <g>
    <g>
      <path class="fill-blue" d="M55 69.8c-.4 0-.7-.2-.8-.5-.8-1.7-5.2-5.9-13.2-11-8.4-5.3-7.5-13.8-5.7-17.9 2-4.5 5.6-6.9 10.7-7.1 4.1-.1 7.3 3.3 8.6 5.1 1.4-1.8 4.7-5.3 8.8-5.1 5.1.2 8.7 2.6 10.7 7.1 1.8 4.1 2.7 12.6-5.7 17.9-8.1 5.2-12.1 9.4-12.8 11 .1.2-.2.5-.6.5zm-8.6-34.7h-.2c-4.4.2-7.4 2.1-9.2 6-.4 1-4 9.9 5 15.7 6.2 3.9 11 7.8 13 10.4 1.8-2.4 6.1-6.2 12.7-10.4 9-5.8 5.4-14.7 5-15.7-1.7-3.9-4.7-5.8-9.2-6-4.4-.1-8 5.3-8.1 5.3-.1.2-.4.4-.6.4-.3 0-.5-.1-.7-.2l-.2-.2c0-.1-3.3-5.3-7.5-5.3z"/>
      <path class="fill-blue" d="M54.8 27.9c-.5 0-.9-.4-.9-.9V17c0-.5.4-.9.9-.9s.9.4.9.9v10c0 .4-.4.9-.9.9z"/>
      <path class="fill-blue" d="M41.9 28.3c-.3 0-.6-.2-.8-.4l-5.3-8.6c-.3-.4-.1-1 .3-1.2.4-.3 1-.1 1.2.3l5.3 8.6c.3.4.1 1-.3 1.2-.1 0-.3.1-.4.1z"/>
      <path class="fill-blue" d="M31.8 34.8c-.2 0-.4-.1-.5-.2l-9.2-6.3c-.4-.3-.5-.8-.2-1.3.3-.4.8-.5 1.3-.2l9.2 6.3c.4.3.5.8.2 1.3-.2.3-.5.4-.8.4z"/>
      <path class="fill-blue" d="M27.7 45.7l-10.5-.2c-.5 0-.9-.4-.9-.9s.4-.9.9-.9l10.4.2c.5 0 .9.4.9.9.1.5-.3.9-.8.9z"/>
      <path class="fill-blue" d="M68 28.3c-.2 0-.3 0-.5-.1-.4-.3-.6-.8-.3-1.2l5.3-8.6c.3-.4.8-.6 1.2-.3.4.3.6.8.3 1.2l-5.3 8.6c-.1.2-.4.4-.7.4z"/>
      <path class="fill-blue" d="M78 34.8c-.3 0-.6-.1-.7-.4-.3-.4-.2-1 .2-1.3l9.2-6.3c.4-.3 1-.2 1.3.2.3.4.2 1-.2 1.3l-9.2 6.3c-.3.2-.4.2-.6.2z"/>
      <path class="fill-blue" d="M82.1 45.7c-.5 0-.9-.4-.9-.9s.4-.9.9-.9l10.4-.2c.5 0 .9.4.9.9s-.4.9-.9.9l-10.4.2z"/>
    </g>
    <path class="fill-darkgray" d="M51.6 71.6c-2.9-1.6-11.2-4.5-13.5-5.1-1-.3-2.2-.5-3.4-.6l2.4-8.7c.1-.5-.2-1-.6-1.1-.5-.1-1 .2-1.1.6l-2.5 9.1c-1.3-.1-2.6 0-3.7.1-2.5.3-3.7-1.3-3.9-1.7-.3-.5-1-1.7-1.6-2.7-.3-.6-.6-1.1-.8-1.4-.7-1.1-2.4-2.3-4.3-2.3-1.1 0-2.1.5-2.7 1.4-.6.9-.7 2-.2 3.2.6 1.5 3.8 8.5 5.7 12.5.7 1.4 1.8 2.5 3.2 3.1L35 82.5l-1 4.7h-2.8v4.1h22.5v-4.1h-.1c.4-2.9 1.2-8.6 1.3-9.8.2-1.1.1-3.9-3.3-5.8zM35.8 87.2l1.1-4.9c.1-.4-.1-.9-.5-1l-11.1-4.8c-1-.4-1.8-1.2-2.3-2.2-1.5-3.2-5-10.9-5.7-12.4-.2-.6-.2-1.2 0-1.5.2-.4.7-.6 1.2-.6 1.2 0 2.4.7 2.8 1.4.2.3.5.8.8 1.4.6 1 1.3 2.2 1.6 2.8.9 1.4 2.8 2.8 5.6 2.5 2.4-.3 5.8 0 8.2.6 2.2.6 10.3 3.4 13.1 4.9 2.5 1.4 2.5 3.3 2.5 4-.1 1.2-1 7.2-1.3 9.9h-16z"/>
    <path class="fill-darkgray" d="M94 59.2c-.6-.9-1.6-1.4-2.7-1.4-2 0-3.6 1.2-4.3 2.3-.2.3-.5.8-.8 1.4-.5 1-1.2 2.2-1.6 2.7-.2.3-1.4 1.9-3.9 1.7-1.1-.1-2.4-.1-3.7-.1l-2.5-9.1a.8.8 0 0 0-1.1-.6c-.5.1-.8.6-.6 1.1l2.4 8.7c-1.2.1-2.3.3-3.4.6-2.3.6-10.6 3.4-13.5 5.1-3.4 1.9-3.5 4.7-3.4 5.8.1 1.2.9 6.9 1.3 9.8h-.1v4.1h22.5v-4.1h-2.8l-1.1-4.6 10.4-4.5c1.4-.6 2.6-1.7 3.2-3.1 1.9-4 5.1-11 5.7-12.5.7-1.3.6-2.4 0-3.3zm-1.5 2.6c-.6 1.6-4.2 9.2-5.7 12.4-.5 1-1.3 1.8-2.3 2.2l-11.1 4.8c-.4.2-.6.6-.5 1l1.1 4.9H58c-.4-2.8-1.2-8.8-1.3-9.9-.1-.8 0-2.7 2.5-4 2.7-1.5 10.9-4.3 13.1-4.9 2.4-.6 5.8-.9 8.2-.6 2.8.3 4.7-1.1 5.6-2.5.4-.6 1-1.7 1.6-2.8.3-.6.6-1.1.8-1.4.4-.7 1.6-1.4 2.8-1.4.5 0 1 .2 1.2.6.3.4.3.9 0 1.6z"/>
  </g>
</svg>