<svg class="fill-white w-full" xmlns="http://www.w3.org/2000/svg" viewBox="0 0 385.54 85.3"><g><g><path d="M35.69 20.83c-1 .06-1.2.54-2.34.78s-2.16.48-3.24.66a7.39 7.39 0 0 0-1.2.12c-.42.36 0 .48-.06.84a23.25 23.25 0 0 1-1.85 3.9c-1.14 2.16-2.16 4.32-3.24 6.54-1 2-1.56 4.08-2.58 6.12-1.14 2.28-2.1 4.62-3.06 7-.78 1.8-1.14 3.66-1.86 5.52a84 84 0 0 0-2.94 8.52 50.63 50.63 0 0 1 8.52-.36 7.26 7.26 0 0 0 1.14.06c.24 0 .18-.36.42-.3a.55.55 0 0 1 .48.6c0 1-2.1 1.2-2.76 1.2a4.46 4.46 0 0 0-1.08.18 4 4 0 0 1-1.14.6l-3.12.66c-1.68.36-3 .78-4.74 1-1 .12-1.92.36-2.88.48a12 12 0 0 0-1.56.6c-1.5.48-4.14 1-5.58.18-1.08-.66-1.5-2.16-.24-2.82a10.64 10.64 0 0 1 2.4-.48A45.34 45.34 0 0 0 9 61.33c-1.2-2.64.3-5.52 1.2-8a43.17 43.17 0 0 1 1.92-4.56c.66-1.5 1-3.06 1.56-4.56 1.26-3.48 2.94-6.84 4.44-10.2s3-6.84 4.62-10.2a8.33 8.33 0 0 0-1.56.6 11.87 11.87 0 0 1-3.3.54c-1.32.06-3.78-.72-3.06-2.52a1.17 1.17 0 0 1 .78-.72 9.34 9.34 0 0 1 2.58-.48 22 22 0 0 1 3.36-.6 10.31 10.31 0 0 0 2.28-.48c.84-.24.78-.24 1.26-.84a3.22 3.22 0 0 0 .6-1 .31.31 0 0 1 0-.42 1.41 1.41 0 0 1 1.08-.48 4.12 4.12 0 0 1 2.94 1.14c.48.42.48.66 1.14.78a9.29 9.29 0 0 0 1.26-.06 28.18 28.18 0 0 1 4.5-.06 7.26 7.26 0 0 0 1.14.06c.24 0 .12-.36.36-.3s.48.12.54.42v.06c.17 1.14-2.29 1.32-2.95 1.38zM21.53 32.41a5.63 5.63 0 0 0-.6.84c-.36.72-.54 1.44-.84 2.16l.84-1.32c.3-.54.36-1.09.6-1.68zm3.06-4.62a13.74 13.74 0 0 0-1.44 2 16 16 0 0 0-.42 2.34 14.42 14.42 0 0 1 .66-1.38 17.79 17.79 0 0 0 1.2-2.96z"/><path d="M61.31 51.49c-1.5 2.16-3 4.38-4.68 6.42-1.14 1.5-3.24 4.32-5.34 4.38-.42.06-2.94-.78-2.82-1.26l.06.06c-.12-.06-.12-.18-.18-.3 0 .12-.84-.72-1-1a6.93 6.93 0 0 1-.66-2.16 22.94 22.94 0 0 1-.18-3.48 10.55 10.55 0 0 1 .6-3.6c.06-.24 1.14-3.6 1.5-3.54.06 0-.18.48-.06.54.18-.6.42-1.2.66-1.86A1.26 1.26 0 0 1 49 46c-.06-.06 1.62-4.14 1.92-4.8-2 1.86-3 4.44-5 6.36-1.26 1.26-2.22 3.66-3.24 5.34-.84 1.44-1.62 3.6-3.54 1.74a3.11 3.11 0 0 1-1-1.86 7.3 7.3 0 0 1 .42-2.28 7.19 7.19 0 0 0 .06-1.62c.24-2.16 1.62-4.26 2.4-6.3.18-.66 2.1-4.32 1.14-4.38-.12-.06-1 1.2-1.2 1.38a28.21 28.21 0 0 0-2 2.64c-2 3.06-3.24 6.12-4.92 9.3-.66 1.26-1.2 2.52-1.8 3.72-.24.6-.66 1.14-.84 1.74a3 3 0 0 1-.12.78c-.6 1.08-2.94-.48-3.54-1.2-1.26-1.5-.78-2.88-.84-4.56-.12-2.22.72-4.38 1.44-6.48a21.52 21.52 0 0 1 1.2-3.06 14.78 14.78 0 0 0 1-1.62c.18-.3-.06-.6.48-.84s1 .18 1.38.48a10.52 10.52 0 0 1 1.08 1.56c.3.42.9.72.66 1.56 0 .12-.12.24-.18.36-.36.6-.9 1.14-1.32 1.74a2.77 2.77 0 0 0-.54.9c-.12.42 0 .6-.12 1-.18.84-.66 1.56-.84 2.4a9 9 0 0 0-.36 1.74 8.21 8.21 0 0 1 .22 1.79c.9-1.44 1.32-3.24 2.16-4.8 1-1.92 1.92-4 3.06-5.82 1-1.5 2.1-2.94 3.06-4.5.78-1.26 2.1-3.06 3.66-3.24 2.16-.3 3.84 2.34 3.36 4.26-.42 1.5-1.32 3-1.86 4.44-.72 2.1-1.32 4.26-1.92 6.36a42.39 42.39 0 0 1 2.58-4.44l-1.2 1.62c-.06-.42 4.92-6.9 5.52-7.5 1.62-1.56 5-3.24 5.94.06.78 2.88-.72 6.24-1.74 8.82a45.26 45.26 0 0 0-2.82 7.26 1.26 1.26 0 0 1 .24-.36s-.42 2.88.12 3c1.14.24 3.48-3 4.14-3.72 1.62-1.8 3.18-3.72 4.74-5.58.3-.36 2.94-4 3.36-2.64.06.12 0 .06 0 .06.31 1.56-1.31 3.54-2.09 4.68zm-19.44-8.7v.06c.36-.9 1.44-3.72 1.08-4.56.24 1-1.2 4.68-1.44 5.16-.6 1.38-1.32 2.76-1.8 4.2a13.76 13.76 0 0 0-.84 4.2 15.12 15.12 0 0 1 1.2-4c.6-1.62 1-3.36 1.68-4.86a.86.86 0 0 1 .12-.18h-.06z"/><path d="M93.65 46.15c-.48 1.62-2 2.16-3.06 3.12a28.18 28.18 0 0 1-3 2.28c-.78.54-1.62.36-2.22 1a.06.06 0 0 1-.06-.06 3.11 3.11 0 0 1-.78.72c-.54.36-.78.72-1.26 1.08-.84.6-1.44.36-2 .66h.06a34.73 34.73 0 0 0-3.42 3.84c-1 1.08-2 2-2.88 3.06-.78.84-2.4 2.82-3.72 2.82s-2.8-2.67-3.16-3.82c-.54-1.62.24-1.08 1.26-1.32 1.44-.36 2.7-2.16 3.66-3.18 1.26-1.38 2.4-2.88 3.66-4.32a8.26 8.26 0 0 0 1.32-1.56c.06-.18.36-1.2.6-1.2a1.56 1.56 0 0 1-.18.42l.36-.54c-.18.12.3-1 .36-1.08.3-.66.66-1.26 1-1.92a15.19 15.19 0 0 0 1.81-3.9c.18-.66.66-3.18-.66-2.94-.48.06-3.24 2.22-3.36 2.16s.36-.42.3-.48a19.93 19.93 0 0 0-1.5 1.62 1.26 1.26 0 0 1 .36-.24c-.48.42-5.28 7.14-5.7 7.74-1 1.32-1.74 2.76-2.64 4.2a18.66 18.66 0 0 1-1.5 2.28c-.3.24-.66.36-.84.6a35.13 35.13 0 0 0-1.8 3.36c-.78 1.32-1.5 2.76-2.34 4.08a24.49 24.49 0 0 0-1.56 4.14c-.36 1-.78 1.92-1.08 2.88a1.31 1.31 0 0 1 .3-.48 8.5 8.5 0 0 1-.36 2.28L59 76.21c-.42 2-.72 4-1.08 6-.06.72-.06 2.1-.66 2.7-1.32 1.26-3-.84-3.54-1.86-1.56-2.88-.12-7.56.36-10.68a26.35 26.35 0 0 1 1.5-6.06 15.55 15.55 0 0 0 .84-1.74c0-.06.12-1.32.3-1.38 0 .06.06.12.06.18a1.53 1.53 0 0 1 .12-.42c-.3.54 0-.9 0-1 .18-.66.42-1.26.6-1.86a23.55 23.55 0 0 0 1-3.36c.12-.48 1.62-5.52 2.22-5.4.12 0-.12.42-.06.48.24-.54.42-1.08.6-1.62a.6.6 0 0 1-.24.3s2.22-6.24 2.46-6.9c.48-1.2.78-2.4 1.2-3.66a5.7 5.7 0 0 0 .32-1.04c0-.24-.3-.36-.3-.6-.12-1.56.84-3.18 2.82-2.64a3.38 3.38 0 0 1 2.16 2c.54 1 .24 1.44.06 2.34l.18-.3c.24 0-.24 2.52-.6 2.46-.06 0 .18-.9.18-1.08-.48 1.68-1 3.3-1.56 4.92v-.06l-.36 1a2.51 2.51 0 0 1-.24.6c-1.44 4.2-3.72 11.34-4 12.24.48-1 1-1.92 1.56-2.82l-1 1.38s6-9.72 6.6-10.62c2.16-3.24 4.32-6.6 6.78-9.72 1.08-1.32 2.94-3.78 4.92-3.66 3.24.24 4 3.9 4 6.3.06-.3.12-.84.24-.78.9.48-.48 4.92-.72 5.64A32.17 32.17 0 0 1 83 51.31c1.2-.66 2.28-1.44 3.42-2.22s2.34-.72 3.36-1.14c-.06 0-.18-.06-.18-.12-.18-.48 2.94-1.44 3.3-1.5a2.53 2.53 0 0 1 .75-.18zM55.43 72c-.06.06-.06.06-.06.12s.06-.12.06-.12zm6.72-19.62c.12.48-1 2.88-1.14 3.18-1 2.46-2.16 4.92-2.94 7.44-.84 2.76-1.92 5.64-2.58 8.58a48.79 48.79 0 0 1 2-6.12c1-2.28 1.86-4.68 2.64-7.08.36-1.14.72-2.28 1.14-3.42a9 9 0 0 0 .9-2.4v-.06a.19.19 0 0 0-.02-.17zm2.1 3.9a15.47 15.47 0 0 0 .6-2c-.24.63-.42 1.35-.6 1.95zm.9-2.64a.06.06 0 0 0 .06-.06zM68 45.91a.31.31 0 0 0 .12-.24zm.36-.78l-.24.54zm0 0a1.32 1.32 0 0 1 .18-.48zM71.27 47c0 .06 0 .06-.06.12v.06c.06-.13.12-.25.06-.18zm.66-.9l1.14-1.68c-.42.58-.78 1.13-1.14 1.67zm11.46 5.22c-.18.12-.48.18-.54.36z"/><path d="M118.07 50.65a44.45 44.45 0 0 1-2.64 5 45.55 45.55 0 0 1-3.6 5.1c-1.08 1.38-2.58 3.12-4.38 3.42-2 .36-3.66-1.32-4.32-3.12-1.44-3.54-.42-7.26.66-10.68a8.17 8.17 0 0 1 .06-1c-.6.9-1.44 2-2 2.82-.72 1.14-1.26 2.28-2 3.36-.36.54-5.28 6.48-5.94 5.46 0 0 .72-.3.66-.42A3.1 3.1 0 0 1 92 61c.18.12.3.18.24.18-1.38.18-2.46-2-2.76-2.94a11.79 11.79 0 0 1-.06-5.22 28.23 28.23 0 0 1 4.14-10.26 8.83 8.83 0 0 1 1.86-2.1 11.3 11.3 0 0 1 1.44-.84 4.34 4.34 0 0 1 3-1.44c2.94 0 4.14 3.36 4.74 5.64 1.44-1.86 4-4.32 6.24-1.62 1.2 1.44.42 2.52-.24 3.84a27.78 27.78 0 0 0-2.52 6.84c.06-.18.24-1.08.48-1.14.48-.12-3.84 13.44 2.34 5.82 1.86-2.34 3.48-4.8 5.1-7.26.72-1.14 1.44-2.34 2.22-3.48.36-.48 1.44-1.62 1.5-.3s-1.17 2.79-1.65 3.93zm-15.24-4.44c0-.48-1.2-3.78-.9-4 .06-.06.6 1.68.66 1.8-.18-.72-.42-2.94-1.5-2.94-2 0-3.48 3.66-4.14 5a35.37 35.37 0 0 0-2.76 8.52c.18-.9 3.66-11.76 4.74-11.7-.84.18-4 9.42-4.2 10.26-.12.48-1.08 3.6-.18 3.9.6.18 2-1.68 2.34-2.1q1.71-2.07 3.24-4.32l1.56-2.22c.24-.42.54-.84.84-1.26a1.23 1.23 0 0 0 .3-.94zm.18-.42v.6c.18-.18.18-.39-.01-.6zm1.44 2.88l-.3.42c-.06.18-.24 1-.24 1z"/><path d="M134.15 54.07A45.87 45.87 0 0 1 126 63c-1.74 1.44-4 2.82-6.42 2.52a3.2 3.2 0 0 1-1.92-.9c-.36-.36-2-2.7-1.68-3.06a5.85 5.85 0 0 0 .3.66l-.3-1c0 .36-.48-.9-.48-1.14a16.08 16.08 0 0 1-.12-2.4c.06-1.5.3-2.94.36-4.38a14.1 14.1 0 0 1 .78-3.84c.06-.3 1.14-3.6 1.5-3.54.06 0-.12.54-.06.54.24-.6.42-1.26.72-1.92l-.24.3c-.06-.06 2.1-4.44 2.34-4.86a13.57 13.57 0 0 1 3.6-4 4.77 4.77 0 0 1 3.54-1.14 3.24 3.24 0 0 1 2.75 2.16 6.62 6.62 0 0 1 .84 3.66 8.9 8.9 0 0 1-.6 3c-.42.84-2.28 2-3.24 1.32-.78-.54-.18-.9.12-1.38l-.3.24a30 30 0 0 1 1-3.06 12.47 12.47 0 0 1-.18 1.38c.24-.78 1-6.12-1-4.5a8.23 8.23 0 0 0-1.68 2.64 47.54 47.54 0 0 0-1.86 4.5 31.64 31.64 0 0 1 2.64-5.58 4.1 4.1 0 0 1 1.44-1.74c.06-.06.54.12.42.18s-.3-.18-.42-.06a14.58 14.58 0 0 0-2.94 4.8 51.21 51.21 0 0 0-3.6 11.76 16.86 16.86 0 0 0-.18 6c.12.42.24 1 .66 1.26 1 .72 2.64-.6 3.48-1.2a30.51 30.51 0 0 0 3.66-3 2.43 2.43 0 0 1-.54.3 10.06 10.06 0 0 1 1.08-1.52c.6-.6 1.14-1.26 1.68-1.92 1-1.2 2-2.4 2.94-3.66.48-.6 3.6-5.58 4.8-4.38.9 1-1.26 3.3-1.8 4.08-1.02 1.31-2.04 2.57-2.94 3.95zm-16.92-1.68a5.59 5.59 0 0 0-.18 2.22 4.38 4.38 0 0 1 .24-1.86c.12-.12-.06-.36-.06-.36zm.3-1c-.3.12-.3.42-.3.72a2.82 2.82 0 0 1 .18-.54zm2-6a14.19 14.19 0 0 0-1.38 3.18c.06-.3.6-.66.78-1.08a8.93 8.93 0 0 0 .54-1.8 2.6 2.6 0 0 0 .1-.26zm2.88 3c-.3 1-.6 1.92-.84 2.88zm.24-1a.76.76 0 0 0-.06.36c0-.06 0-.06.06-.12z"/><path d="M159.05 30.07c.06.84-1 1.5-1.68 1.68s-1.68-.24-2.4-.12c-.42.12-.3.3-.66.42a5.68 5.68 0 0 1-1.74.12c-.78 0-2.46-.42-3.12 0a1 1 0 0 0-.36.36l.18-.36c-.36.06-1 1.68-1.38 2.76l.66-1.32-.84 2.28c-.6 1.26-1.14 2.58-1.68 3.84-1.08 2.52-2 5-3 7.56a133.55 133.55 0 0 0-4.32 14.46c-.18.84-1.2 4.32-.06 4.8.18.12 1.44-.6 1.38-.54.3-.3.66-.6 1-1-.24.18-.9.72-.9.6-.06-.36 1.44-1.56 1.68-1.86.6-.6 1.14-1.26 1.68-1.86l3.48-4.26c2.16-2.7 4.2-5.46 6.36-8.16.48-.6 1.56-2.7 2.34-2.88 1-.18 1.14.78.84 1.56-.54 1.62-2.16 2.94-3 4.38-1.5 2.52-3.3 4.86-5 7.26-1.92 2.58-3.84 5.16-5.94 7.62-1 1.2-2.22 2.88-3.72 3.6-1.14.54-2.64-.12-3.6-.84a4.56 4.56 0 0 1-1.92-3c-.06-.36-.42-2.28-.06-2.7v.9l.12-1.2c-.12.24-.12-.54-.12-.66a6.51 6.51 0 0 1 .24-1.5 23.63 23.63 0 0 1 .6-2.82c.42-1.86.9-3.72 1.26-5.64a34.19 34.19 0 0 1 1.56-5.52c.12-.3 1.32-4 1.62-4a4.13 4.13 0 0 1-.12.78c.24-.9.6-1.8.9-2.7-.12.3-.3.6-.3.48A10.92 10.92 0 0 1 140 40l.72-2.1a57.66 57.66 0 0 1 2.16-5.64 42.27 42.27 0 0 0-4.86.3 25.77 25.77 0 0 1-7.44-.12c-.3-.06-1.74-.12-1.38-.78a6.9 6.9 0 0 1 1.68-.54 11.73 11.73 0 0 1 3.54-.48c2.34-.24 4.62-.12 7-.42a8.55 8.55 0 0 0 2.16-.12c.54-.18.54-.6.78-1.14.42-1.08.9-2.16 1.38-3.18a22.23 22.23 0 0 1 1.74-3.36c.48-.66 1-.84 1.32-1.56a19.82 19.82 0 0 1 2.7-4.62c1.2-1.56 3.3-1.8 5.16-1.44.9.18 2.16.72 1.74 1.92-.18.48-.78.78-1.14 1.14 0 .06.54-.54.54-.3a15.68 15.68 0 0 1-2.53 3.44c-.06 0 .84-1.5.9-1.62a88.57 88.57 0 0 0-6 10.68c.18 0 .36-.24.6-.66a3.85 3.85 0 0 0-.3.66c2.34-.12 4.74-.12 7.14-.24.48 0 1.38-.66 1.44.18zM137.57 67c.06.06.12.12.18.12zm17.88-48.48c-4.8 6.78-7.8 14.82-11.16 22.32a99.18 99.18 0 0 0-5 13.56c-.6 2.1-1.08 4.2-1.5 6.36l.3-1.14a67.3 67.3 0 0 1 2.64-8.34c2.16-5.94 4.2-12.06 6.9-17.76 2.42-5.13 4.58-10.41 7.82-15.03zm-10 21.9c-.54 1.2-1 2.4-1.44 3.54.48-1.08 1-2.16 1.38-3.3a.45.45 0 0 1 .1-.27zM151.43 28l-.6 1.32a14.08 14.08 0 0 0 .6-1.32zm1.62-3.18l-1.44 2.76c.6-1.41 1.14-2.73 1.44-2.79zM194.27 30.07c.06.84-1 1.5-1.68 1.68s-1.68-.24-2.4-.12c-.42.12-.3.3-.66.42a5.68 5.68 0 0 1-1.74.12c-.78 0-2.46-.42-3.12 0a1 1 0 0 0-.36.36l.18-.36c-.36.06-1 1.68-1.38 2.76l.66-1.32-.84 2.28c-.6 1.26-1.14 2.58-1.68 3.84-1.08 2.52-2 5-3 7.56a133.55 133.55 0 0 0-4.32 14.46c-.18.84-1.2 4.32-.06 4.8.18.12 1.44-.6 1.38-.54.3-.3.66-.6 1-1-.24.18-.9.72-.9.6-.06-.36 1.44-1.56 1.68-1.86.6-.6 1.14-1.26 1.68-1.86l3.48-4.26c2.16-2.7 4.2-5.46 6.36-8.16.48-.6 1.56-2.7 2.34-2.88 1-.18 1.14.78.84 1.56-.54 1.62-2.16 2.94-3 4.38-1.5 2.52-3.3 4.86-5 7.26-1.92 2.58-3.84 5.16-5.94 7.62-1 1.2-2.22 2.88-3.72 3.6-1.14.54-2.64-.12-3.6-.84a4.56 4.56 0 0 1-1.92-3c-.06-.36-.42-2.28-.06-2.7v.9l.12-1.2c-.12.24-.12-.54-.12-.66a6.51 6.51 0 0 1 .24-1.5 23.63 23.63 0 0 1 .6-2.82c.42-1.86.9-3.72 1.26-5.64a34.19 34.19 0 0 1 1.56-5.52c.12-.3 1.32-4 1.62-4a4.13 4.13 0 0 1-.12.78c.24-.9.6-1.8.9-2.7-.12.3-.3.6-.3.48a10.92 10.92 0 0 1 1-2.64l.72-2.1a57.66 57.66 0 0 1 2.16-5.64 42.27 42.27 0 0 0-4.86.3 25.77 25.77 0 0 1-7.44-.12c-.3-.06-1.74-.12-1.38-.78a6.9 6.9 0 0 1 1.68-.54 11.73 11.73 0 0 1 3.54-.48c2.34-.24 4.62-.12 7-.42a8.55 8.55 0 0 0 2.16-.12c.54-.18.54-.6.78-1.14.42-1.08.9-2.16 1.38-3.18a22.23 22.23 0 0 1 1.74-3.36c.48-.66 1-.84 1.32-1.56a19.82 19.82 0 0 1 2.7-4.62c1.2-1.56 3.3-1.8 5.16-1.44.9.18 2.16.72 1.74 1.92-.18.48-.78.78-1.14 1.14 0 .06.54-.54.54-.3a15.68 15.68 0 0 1-2.56 3.49c-.06 0 .84-1.5.9-1.62a88.57 88.57 0 0 0-6 10.68c.18 0 .36-.24.6-.66a3.85 3.85 0 0 0-.3.66c2.34-.12 4.74-.12 7.14-.24.48 0 1.38-.66 1.44.18zM172.79 67c.06.06.12.12.18.12zm17.88-48.48c-4.8 6.78-7.8 14.82-11.16 22.32a99.18 99.18 0 0 0-5 13.56c-.6 2.1-1.08 4.2-1.5 6.36l.3-1.14a67.3 67.3 0 0 1 2.69-8.37c2.16-5.94 4.2-12.06 6.9-17.76 2.37-5.1 4.53-10.38 7.77-15zm-10 21.9c-.54 1.2-1 2.4-1.44 3.54.48-1.08 1-2.16 1.38-3.3a.45.45 0 0 1 .1-.27zM186.65 28l-.6 1.32a14.08 14.08 0 0 0 .6-1.32zm1.62-3.18l-1.44 2.76c.6-1.41 1.17-2.73 1.44-2.79z"/><path d="M218.51 46.81c.24-.06-1.38 3.3-1.62 3.6-.9 1.44-1.86 2.88-2.82 4.26-1.74 2.64-3.36 5.7-5.64 7.92a3.15 3.15 0 0 1-2.58 1.14 4.51 4.51 0 0 1-3.18-1.56c-.18-.18-1.8-1.56-1.62-2l.36.54a4.64 4.64 0 0 1-.42-1V60c-.18.18-.66-2-.66-2.22a10.36 10.36 0 0 1 .3-2.7c.42-1.44.84-2.88 1.2-4.32a25.56 25.56 0 0 1 1.92-4.38 13.26 13.26 0 0 1 1.5-2.58c0 .06-.24.6-.18.66l.9-2-.18.18 1.74-4.2a41.2 41.2 0 0 0-5.7 6.42 22 22 0 0 1-2.64 3.14c-.36.3-.48.12-.78.48a6.25 6.25 0 0 0-.6 1.08c-1.38 2.28-3.12 4.32-4.56 6.54l-1.08 1.9a2.27 2.27 0 0 1-.36.78 1.91 1.91 0 0 1-2.82-.3 3.14 3.14 0 0 1-.6-2.16 30.29 30.29 0 0 1 .84-8 116 116 0 0 1 4.26-16.74c1.62-4.86 4.08-9.24 6.42-13.8 0-.06.3-1.32.6-1.5-.06.06-.42 1.14-.42 1.14l.72-1.38a.19.19 0 0 1-.12-.06c0-1.08 1.32-2.7 1.92-3.6.84-1.38 1.74-2.7 2.7-4 1.68-2.34 3.3-4.92 5.58-6.66a6.45 6.45 0 0 1 4.2-1.72 3 3 0 0 1 2.1.84c.24.24 1.32 2.1 1 2.34a5.63 5.63 0 0 0-.36-.9 7.37 7.37 0 0 1 .36 3c.06-.12.06-.18.12-.18.3 0-1 5.52-1.14 6a44.35 44.35 0 0 1-2.34 6.12 59 59 0 0 1-7.56 12.3c-.6.66-1.38 1.14-1.92 1.68s-1 1.5-1.62 2.22a56.45 56.45 0 0 1-5 5 6 6 0 0 0-1.86 2.82c-.42 1.26-.78 2.52-1.2 3.72-.78 2.4-1.5 4.8-2.16 7.26 1-1.56 2.1-3.06 3.24-4.56-.78.9-1.32 1.56-1.32 1.56s7.44-9.3 8.22-10.14c1.8-1.92 5.1-6.06 7.74-2.82 1.5 1.86.36 4.08-.54 5.88a75.31 75.31 0 0 0-4.44 10.5c.06-.06.36-1 .54-.84.36.36-.72 3.18-.84 3.72s-.48 2.34 0 2.64c.78.54 2.16-1.08 2.7-1.56 2.16-2.1 4.14-4.44 6.12-6.72a32 32 0 0 1 2.28-2.7c.18-.18.6-.78.9-.78.1.05.76.35.4.41zm-20.76-11.16c-.06.3-.3 1.26-.18 1.26-.18-.06 2.22-6.36 2.46-7 .48-1.26 1.2-2.34 1.62-3.66a27.79 27.79 0 0 1 1.74-3.84c.78-1.68 8.16-15.78 7.68-16.08-.12-.06-5.88 10.92-6.42 12.12-1.2 2.52-2.76 4.92-3.72 7.56-1.08 3.12-2.58 6.18-3.12 9.42zm0 0a.21.21 0 0 0 .06-.12c0 .06-.06.06-.06.12zm15.06-29.52c-2.16 3.42-4 7.14-5.88 10.74-1.68 3.3-3.54 6.72-5 10a2.31 2.31 0 0 1 .48-.66s-1.26 3.54-1.44 3.9l-1.8 4.74a77.41 77.41 0 0 0 11.1-15.06c-1.2 2-2.46 4-3.78 5.76l-2.4 3.36L203 30l.48-.54c.6-.72 1.14-1.44 1.68-2.16 1-1.44 2-2.94 3-4.44a68.32 68.32 0 0 0 5.22-9.66 41.16 41.16 0 0 0 1.92-5.4c.24-.9 1-3.42.18-4.14s-2 1.44-2.52 2.16c.06-.06 0 .06-.06.18a.06.06 0 0 1-.06.06v.06a.06.06 0 0 1-.03.01zm-10.44 24.6c-.18.18-.3.42-.42.54a3.3 3.3 0 0 1 .42-.54zM212.93 6h-.06v.06z"/><path d="M236.93 47.53L235.07 50l-3.24 4.2c-.84 1.08-1.86 2.1-2.7 3.18s-1.68 2.46-2.7 3.6a15.89 15.89 0 0 1-3.78 3.12 3.9 3.9 0 0 1-3.06.3 8 8 0 0 1-4-2.58 2.21 2.21 0 0 1-.66-1.14 7.39 7.39 0 0 1-.12-1.2 7.54 7.54 0 0 1 .3-2c.12-.78.48-1.5.6-2.28s.36-1.62.48-2.4a13.77 13.77 0 0 1 .12-2.22c.12-.48.48-1 .66-1.5a5.68 5.68 0 0 0-.54 1c-.18.48-.3 1-.48 1.38s-.24.9-.42 1.38a5.16 5.16 0 0 0-.54 1.62c-.06.54 0 1.08-.06 1.62a6.51 6.51 0 0 0-.24 1.5c0 .18.12.54.12.66s-.12.54-.12.84c0 .54.12 1.08.18 1.68-1-1.68-.78-3.36-.48-5.16s.54-3.54 1-5.28a24.1 24.1 0 0 1 4.68-9.84c1.86-2.46 4.32-4.32 7.56-3.72a5.48 5.48 0 0 1 3.3 1.8 4.26 4.26 0 0 1 .36 3.9c-.78 2.34-2.76 4.2-4.62 5.76a19.52 19.52 0 0 1-2.52 1.86 11 11 0 0 1-1.92.84l-1 .36c-.42.12-.48.06-.66.42-.3.6-.12 1.2-.24 1.8-.12.78-.3 1.5-.48 2.28a11.8 11.8 0 0 0-.42 4.8c.66 3.06 5.7-1.68 6.6-2.52.6-.54 1.14-1.14 1.68-1.68.3-.36.66-.66.9-1a1.86 1.86 0 0 0 .12-.42 32.75 32.75 0 0 1 2.58-3.3c1.08-1.26 2-2.58 3.06-4 .54-.78 1.8-3 2.76-1.38v.06c.06.06.06.06.06 0 .22.53.04.83-.26 1.19zM221.51 49a17.34 17.34 0 0 0 5-4l1-1.32c.18-.3.48-.48.6-.84s-.06-.54 0-.9l.24-1.26c.06-.6-.18-2.16-1.08-2a2.79 2.79 0 0 0-1.08 1l-1.08 1.44a39.88 39.88 0 0 0-2.82 5.82.46.46 0 0 1-.06.18c-.23.53-.42 1.19-.72 1.88zM286.61 20.11c-.78.24-.66.36-1.26.84a8 8 0 0 1-2.82 1 51.26 51.26 0 0 1-9.3 1.92 17.21 17.21 0 0 0-2.46.3c-.78.24-.6.12-.9 1l-.48 1.32c-.54 1.74-1 3.54-1.56 5.34a29.61 29.61 0 0 1-2 5.16c-.24.36-1 2.7-1.08 2.7v-.18l-.18.48c.3-.54.06.72.06.78 2-.18 4-.36 6.06-.48s3.84.12 5.76 0c.12 0 1-.72.78.42s-2.4 1-3.18 1.14a15.89 15.89 0 0 1-2.1.78c-1 .24-1.86.36-2.82.6a15.77 15.77 0 0 0-2.34.36 4.53 4.53 0 0 1-1.8.6c-.84.06-1.44 0-1.86.78a24.2 24.2 0 0 0-.66 3c-.12.3-1.5 4.44-1.86 4.38-.12 0 .12-.42.06-.48-.24.54-.42 1.14-.6 1.62l.24-.24c.06.06-2.22 7.14-2.4 7.74-.72 2.16-1 4.8-2.46 6.42-.36.42.3.36-.6.66s-2.64-.66-3.42-1.2a4 4 0 0 1-1.8-2.58c-.12-1 .36-1.26.66-2l-.24.24a6.24 6.24 0 0 1 1-2.52 2.6 2.6 0 0 0-.06.3l1.92-4.86a14.68 14.68 0 0 1-.9 2c.06 0 4.14-10.56 4.5-11.52-1.38.06-4.38-1.26-2.82-2.94a2.23 2.23 0 0 1 1.32-.48l1.8-.3c1.2-.3 1.2-.42 1.56-1.56.48-1.44 1-2.82 1.56-4.26 1-2.4 2.46-4.86 3.3-7.14l-.36.48a18.68 18.68 0 0 1 .66-2.4c.36-.9.6-1.74.9-2.58-1.86.12-6.78 0-5.76-3.18.42-1.2 1.62-1.14 2.7-1.2.84-.06 1.62-.06 2.46-.18a5.35 5.35 0 0 0 1.68-.18c.66-.18.66-.06.9-.84a10.24 10.24 0 0 1 .78-2.28c1.38-2.28 4.5.72 4.44 2.58 3.54-.6 7.32-.54 10.92-1 1.8-.24 3.66-.48 5.52-.84a9 9 0 0 0 2.28-.42c1 .62-3.35 2.79-3.74 2.9zM256 47.77l.78-1.86a6.45 6.45 0 0 0-.78 1.86zm5.88-2.4v-.06c-1.68 4.5-3.6 8.94-5.1 13.44.72-2 1.8-3.9 2.58-5.88.9-2.46 1.74-5 2.52-7.44-.11.12-.11.18-.05-.06zm0-.06c0-.06 0-.06.06-.12v-.06a.22.22 0 0 0-.11.18zM262 45a.22.22 0 0 0-.06.18.21.21 0 0 1 .06-.18zM302.93 49.21a24.91 24.91 0 0 1-3.12 4c-1.74 1.86-4.26 4.92-7.08 5.1a3.66 3.66 0 0 1-3.42-1.74c-1.26-2.28.06-5.16.84-7.26-1.56 1.86-3.06 3.72-4.56 5.64-.42.54-5 5.16-5.58 4.38 0-.06.54-.3.48-.36a3.88 3.88 0 0 1-1.92.66.45.45 0 0 0 .3.06c.12.42-1.62-.24-1.8-.36a4.49 4.49 0 0 1-1.14-2.4 14.09 14.09 0 0 1 .48-5.7 32.41 32.41 0 0 1 1.8-5.64c.42-1 1.14-1.44 1.56-2.28a12.16 12.16 0 0 1 2.82-4.5 3.42 3.42 0 0 1 4.08.06c1.08.84.48 1.26 0 2.1a1 1 0 0 1 .36-.36c.12 0-1.32 2.94-1.62 2.88a7.61 7.61 0 0 1 .36-1c-.78 1.38-1.5 2.82-2.16 4.26a.43.43 0 0 1 .36-.24c-.12-.06-2.28 5.52-2.46 6-.24.9-1.32 3.54.3 3s3.42-2.88 4.5-4.14a55.36 55.36 0 0 0 3.9-5.16c1.32-2 2.88-5.28 5.94-4.44 2.7.78.66 3.66-.18 5.34.12-.12.24-.3.3-.24.36.42-.84 2.7-1 3.3a15.33 15.33 0 0 0-.9 3.72c-.06 1.44.36 1 1.32.3a52.66 52.66 0 0 0 5.46-5.52c.12-.12 2.88-3.3 3.06-2.16.04.78-.92 2.1-1.28 2.7zm-20.58.54c-.66 1.62-1.92 4-1.56 5.76-.12-.51.72-3.42 1.56-5.76zm8-.66a.58.58 0 0 0-.24.54 2.13 2.13 0 0 1 .28-.54zm6.18-5.1c-.6 1.5-2.4 3.42-1.92 4.92a.22.22 0 0 1-.06.18c.06-.06.12-.12.12-.18a6.34 6.34 0 0 0 .36-1.14c.46-1.26 1.06-2.46 1.54-3.77z"/><path d="M324.17 30.07c.06.84-1 1.5-1.68 1.68s-1.68-.24-2.4-.12c-.42.12-.3.3-.66.42a5.68 5.68 0 0 1-1.74.12c-.78 0-2.46-.42-3.12 0a1 1 0 0 0-.36.36l.18-.36c-.36.06-1 1.68-1.38 2.76l.66-1.32-.84 2.28c-.6 1.26-1.14 2.58-1.68 3.84-1.08 2.52-2 5-3 7.56a133.55 133.55 0 0 0-4.32 14.46c-.18.84-1.2 4.32-.06 4.8.18.12 1.44-.6 1.38-.54.3-.3.66-.6 1-1-.24.18-.9.72-.9.6-.06-.36 1.44-1.56 1.68-1.86.6-.6 1.14-1.26 1.68-1.86l3.48-4.26c2.16-2.7 4.2-5.46 6.36-8.16.48-.6 1.56-2.7 2.34-2.88 1-.18 1.14.78.84 1.56-.54 1.62-2.16 2.94-3 4.38-1.5 2.52-3.3 4.86-5 7.26-1.92 2.58-3.84 5.16-5.94 7.62-1 1.2-2.22 2.88-3.72 3.6-1.14.54-2.64-.12-3.6-.84a4.56 4.56 0 0 1-1.92-3c-.06-.36-.42-2.28-.06-2.7v.9l.12-1.2c-.12.24-.12-.54-.12-.66a6.51 6.51 0 0 1 .24-1.5 23.63 23.63 0 0 1 .6-2.82c.42-1.86.9-3.72 1.26-5.64a34.19 34.19 0 0 1 1.51-5.48c.12-.3 1.32-4 1.62-4a4.13 4.13 0 0 1-.12.78c.24-.9.6-1.8.9-2.7-.12.3-.3.6-.3.48a10.92 10.92 0 0 1 1-2.64l.72-2.1a57.66 57.66 0 0 1 2.18-5.6 42.27 42.27 0 0 0-4.86.3 25.77 25.77 0 0 1-7.44-.12c-.3-.06-1.74-.12-1.38-.78a6.9 6.9 0 0 1 1.68-.54 11.73 11.73 0 0 1 3.54-.48c2.34-.24 4.62-.12 7-.42a8.55 8.55 0 0 0 2.16-.12c.54-.18.54-.6.78-1.14.42-1.08.9-2.16 1.38-3.18a22.23 22.23 0 0 1 1.74-3.36c.48-.66 1-.84 1.32-1.56a19.82 19.82 0 0 1 2.7-4.62c1.2-1.56 3.3-1.8 5.16-1.44.9.18 2.16.72 1.74 1.92-.18.48-.78.78-1.14 1.14 0 .06.54-.54.54-.3a15.68 15.68 0 0 1-2.53 3.41c-.06 0 .84-1.5.9-1.62a88.57 88.57 0 0 0-6 10.68c.18 0 .36-.24.6-.66a3.85 3.85 0 0 0-.3.66c2.34-.12 4.74-.12 7.14-.24.48 0 1.38-.66 1.44.18zM302.69 67c.06.06.12.12.18.12zm17.88-48.48c-4.8 6.78-7.8 14.82-11.16 22.32a99.18 99.18 0 0 0-5 13.56c-.6 2.1-1.08 4.2-1.5 6.36l.3-1.14a67.3 67.3 0 0 1 2.64-8.34c2.16-5.94 4.2-12.06 6.9-17.76 2.42-5.13 4.58-10.41 7.82-15.03zm-10 21.9c-.54 1.2-1 2.4-1.44 3.54.48-1.08 1-2.16 1.38-3.3a.45.45 0 0 1 .1-.27zM316.55 28l-.6 1.32a14.08 14.08 0 0 0 .6-1.32zm1.62-3.18l-1.44 2.76c.6-1.41 1.14-2.73 1.44-2.79z"/><path d="M345.35 49.21a24.91 24.91 0 0 1-3.12 4c-1.74 1.86-4.26 4.92-7.08 5.1a3.66 3.66 0 0 1-3.42-1.74c-1.26-2.28.06-5.16.84-7.26-1.57 1.88-3.06 3.74-4.57 5.69-.42.54-5 5.16-5.58 4.38 0-.06.54-.3.48-.36a3.88 3.88 0 0 1-1.92.66.45.45 0 0 0 .3.06c.12.42-1.62-.24-1.8-.36a4.49 4.49 0 0 1-1.14-2.4 14.09 14.09 0 0 1 .48-5.7 32.41 32.41 0 0 1 1.8-5.64c.42-1 1.14-1.44 1.56-2.28a12.16 12.16 0 0 1 2.82-4.5 3.42 3.42 0 0 1 4.08.06c1.08.84.48 1.26 0 2.1a1 1 0 0 1 .36-.36c.12 0-1.32 2.94-1.62 2.88a7.61 7.61 0 0 1 .36-1c-.78 1.38-1.5 2.82-2.16 4.26a.43.43 0 0 1 .36-.24c-.12-.06-2.28 5.52-2.46 6-.24.9-1.32 3.54.3 3s3.42-2.88 4.5-4.14a55.36 55.36 0 0 0 3.9-5.16c1.32-2 2.88-5.28 5.94-4.44 2.7.78.66 3.66-.18 5.34.12-.12.24-.3.3-.24.36.42-.84 2.7-1 3.3a15.33 15.33 0 0 0-.9 3.72c-.06 1.44.36 1 1.32.3a52.66 52.66 0 0 0 5.46-5.52c.12-.12 2.88-3.3 3.06-2.16.05.73-.91 2.05-1.27 2.65zm-20.58.54c-.66 1.62-1.92 4-1.56 5.76-.12-.51.72-3.42 1.56-5.76zm8-.66a.58.58 0 0 0-.24.54 2.13 2.13 0 0 1 .28-.54zM339 44c-.6 1.5-2.4 3.42-1.92 4.92a.22.22 0 0 1-.06.18c.06-.06.12-.12.12-.18a6.34 6.34 0 0 0 .36-1.14c.41-1.27 1.01-2.47 1.5-3.78z"/><path d="M366.05 49.21a21 21 0 0 1-1.74 2.94c-1.38 2-2.88 4.08-4.32 6.12a31 31 0 0 1-4.92 5.58 40.47 40.47 0 0 1-3.3 2.4c0-.06.06-.12.12-.18l-.42.18c.3-.06-.84.72-1.14.84a3.28 3.28 0 0 1-2.46-.54 4.08 4.08 0 0 1-1.56-2 6.58 6.58 0 0 1-.42-4c.06-.3.9-3.78 1.32-3.72.12 0-.12.48-.06.54l.42-1.5a72.89 72.89 0 0 1 3.3-7.2c-1.8.36-4.08.3-5.34-1.26-.36-.48-.24-.9-.36-1.26s-.42-.72-.54-1.14c-.6-2.94 2.82-7 5.7-5l-.12-.18c.06-.36.78.54.84.84s-.48 1.92-.78 1.8c-.06 0 .36-1.08.36-1.14-.42 1.14-1.68 2.4-1.8 3.6-.12.9.36.9 1.14 1.08 1.14.3 2.94.12 4.38.54a19.18 19.18 0 0 0-2.88-.48.06.06 0 0 1-.06-.06c.9.12 1.86.12 2.64.3 1.74.42 2.82 1.08 2.1 2.94s-1.62 3.48-2.4 5.22-1.32 3.48-2 5.22c-.18.6-1.5 3.12-1 3.72s3.9-2.28 4.8-3.24c-.18.18-.36.18-.48.3a17.77 17.77 0 0 1 1.38-1.92l1.74-2.22 3.24-4.33 3.3-4.44c.3-.36 1.74-2.46 2.1-.9a4.49 4.49 0 0 1-.78 2.55zm-18.6 16.2c-.06-.06-.12-.12-.12-.18l.06.06c-.3-.66-.6-1.32-.72-1.68l.18.78-.24-1.26v-.06a.46.46 0 0 1-.06-.18.19.19 0 0 0 .06.12v-.3a10.56 10.56 0 0 1 .12-2.4v-.06a7.06 7.06 0 0 0-.18 1.62 7.33 7.33 0 0 0 .18 2.28 9.63 9.63 0 0 0 .9 1.68c0-.06 0-.12-.06-.12a3.56 3.56 0 0 0 1.38.84 3.35 3.35 0 0 1-1.5-1.2zm-.72-5.22v.06c0-.06.06-.12.06-.18s-.06.06-.06.12zm.18-1.14c0 .12-.06.18-.06.24s.06-.12.06-.24zm.12 0a36.56 36.56 0 0 1 1.68-4.5l1.14-2.64a34.36 34.36 0 0 1 1.86-3.66c-.42.12-1.26 2.28-1.38 2.46a29.38 29.38 0 0 0-1.44 3.12 31.76 31.76 0 0 0-1.89 5.22zm.12 5.88a.21.21 0 0 0-.06-.12c0 .06.06.06.06.12zM348.89 45a.06.06 0 0 1 .11 0zm0 .06a2.71 2.71 0 0 0 .42.42 2.38 2.38 0 0 0 1.2.42 2.91 2.91 0 0 1-1.38-.36.74.74 0 0 1-.24-.47zm6.54 5.1l-1.26 2.7 1.26-2.64zm0-.06h.06v-.06zm0 0h.06v-.06z"/><path d="M385.19 47.53L383.33 50l-3.24 4.2c-.84 1.08-1.86 2.1-2.7 3.18s-1.68 2.46-2.7 3.6a15.89 15.89 0 0 1-3.78 3.12 3.9 3.9 0 0 1-3.06.3 8 8 0 0 1-4-2.58 2.21 2.21 0 0 1-.66-1.14 7.39 7.39 0 0 1-.12-1.2 7.54 7.54 0 0 1 .3-2c.12-.78.48-1.5.6-2.28s.36-1.62.48-2.4a13.77 13.77 0 0 1 .12-2.22c.12-.48.48-1 .66-1.5a5.68 5.68 0 0 0-.54 1c-.18.48-.3 1-.48 1.38s-.24.9-.42 1.38a5.16 5.16 0 0 0-.54 1.62c-.06.54 0 1.08-.06 1.62a6.51 6.51 0 0 0-.24 1.5c0 .18.12.54.12.66s-.12.54-.12.84c0 .54.12 1.08.18 1.68-1-1.68-.78-3.36-.48-5.16s.54-3.54 1-5.28a24.1 24.1 0 0 1 4.68-9.84c1.86-2.46 4.32-4.32 7.56-3.72a5.48 5.48 0 0 1 3.3 1.8 4.26 4.26 0 0 1 .36 3.9c-.78 2.34-2.76 4.2-4.62 5.76a19.52 19.52 0 0 1-2.52 1.86 11 11 0 0 1-1.92.84l-1 .36c-.42.12-.48.06-.66.42-.3.6-.12 1.2-.24 1.8-.12.78-.3 1.5-.48 2.28a11.8 11.8 0 0 0-.42 4.8c.66 3.06 5.7-1.68 6.6-2.52.6-.54 1.14-1.14 1.68-1.68.3-.36.66-.66.9-1A1.86 1.86 0 0 0 377 55a32.75 32.75 0 0 1 2.58-3.3c1.08-1.26 2-2.58 3.06-4 .54-.78 1.8-3 2.76-1.38v.06c.06.06.06.06.06 0 .21.49.03.79-.27 1.15zM369.77 49a17.34 17.34 0 0 0 5-4l1-1.32c.18-.3.48-.48.6-.84s-.06-.54 0-.9l.24-1.26c.06-.6-.18-2.16-1.08-2a2.79 2.79 0 0 0-1.08 1l-1.08 1.44a39.88 39.88 0 0 0-2.82 5.82.46.46 0 0 1-.06.18c-.24.53-.42 1.19-.72 1.88z"/></g></g></svg>