<svg xmlns="http://www.w3.org/2000/svg" viewBox="0 0 1506.45 332.65"><g data-name="Layer 2"><g data-name="Layer 1"><path d="M13.29 242.3c-13-12.76-17.41-4.37-8.92 9.52 41.13 67.24 138.17 98.33 216.4 70.85 68.82-24.16 98.91-97.3 80-147.49-33.53-88.81-140.5-80.93-148.15-28.64-1.24 8.46 1.47 8.24 10 7.77 91.23-5 88.2 100.46 29.35 131.08-44.57 23.18-121.5 12.88-178.68-43.09z"/><path d="M178.11 221c12.62-1.29 12.31 3.41 9.62 8-5.41 9.31-21.1 21.3-35.76 26.16C84 277.73 14 224.35 5.47 165.68-9.21 64.78 90.81 8.89 161.16.13c10.68-1.33 10.25 8.08 2.31 10.45C-7.74 61.87 53.37 233.73 178.11 221z"/><path d="M287.45 114.81c7.94 9.17 15.11 3.19 11.07-4.79-27.17-53.67-94.17-89.63-148.15-67.6-77.2 31.5-63.88 96.19-45 118.14 7.8 9.05 20.94 18.32 17.86-2.64-12.98-88.27 98.97-118.45 164.22-43.11zM941.36 106.64H911V51h8.36v48.81h22v6.83zM982.09 100v6.6h-32.3V51h31.53v6.6h-23.17v16.8h17.49V81h-17.49v19zM1025.65 106.64l-6.29-17H999.8l-5.75 17h-8.52l20.79-56.23h7.21l20.79 56.23zM1017 83.32L1009.15 62l-7.29 21.32zM1087.92 78.48c0 18.72-12.43 28.15-29.46 28.15h-16.11V51h14.73c9.92 0 30.84 3.7 30.84 27.48zm-8.66.15c0-17.56-13.58-21.56-23.24-21.56-1.07 0-5.3.08-5.3.08v43s4.45.23 5.76.23c9.04.04 22.78-2.49 22.78-21.75zM1130.57 100v6.6h-32.3V51h31.53v6.6h-23.17v16.8h17.49V81h-17.49v19zM1178.88 101.27c-.15 1.07-1.23 6-1.23 6s-.69.07-1.69.07c-3.83 0-7.9-1.15-11.12-6.91l-9.28-16.8c-3.3 0-6-.07-7.44-.15v23.17h-8.36V51.24s5.75-.38 12.58-.38c11.35 0 22.71 2.68 22.71 15.5 0 10-7.06 13.88-11.12 15.34 1.69 3.22 6.37 12.43 8 14.81 1.89 2.84 4.07 4.76 6.95 4.76zm-12.43-34.45c0-8-6.52-9.59-12-9.59-.46 0-3.76 0-6.29.23V77.4a39.93 39.93 0 0 0 4.76.31c5.86 0 13.53-2.45 13.53-10.89zM1218.91 91.07c0 9.74-6.44 16.49-18.72 16.49a40.79 40.79 0 0 1-15-2.46l1.76-8.13a23.18 23.18 0 0 0 12.35 3.53c6.83 0 11-2.3 11-8.21 0-6.37-9-9.66-10.89-10.58-3.68-1.92-14.19-6-14.19-17 0-7 5.68-14.58 17.72-14.58a30.54 30.54 0 0 1 14.19 3l-.69 8c-3-2.22-8.59-4-13.81-4-5.83 0-8.9 2.84-8.9 7 0 4.52 3.37 7.29 10.43 10.66s14.75 7.07 14.75 16.28zM1271.45 51v55.62h-8.36V81.25H1237v25.39h-8.36V51h8.36v23.65h26.08V51zM1285.25 51h8.36v55.62h-8.36zM1342.47 67.05c0 12.88-11 17.34-18.49 17.34a39.22 39.22 0 0 1-8.21-.77v23h-8.36V51.1c.84-.07 5.29-.22 9.82-.22 11.89-.01 25.24 1.29 25.24 16.17zm-8.67.15c0-8.28-7.36-10.28-13.43-10.28a28.93 28.93 0 0 0-4.6.31V77a22.86 22.86 0 0 0 6.83 1c4.91 0 11.2-2.28 11.2-10.8zM956.55 170.52c0 18.72-12.43 28.15-29.46 28.15H911v-55.62h14.73c9.88 0 30.82 3.69 30.82 27.47zm-8.67.15c0-17.56-13.58-21.56-23.24-21.56-1.07 0-5.3.08-5.3.08v43s4.45.23 5.76.23c9.05.04 22.78-2.5 22.78-21.75zM999.19 192.07v6.6h-32.3v-55.62h31.53v6.6h-23.17v16.8h17.49v6.6h-17.49v19zM1052.72 143.05L1030 199.43h-4.37l-23-56.38h9l16.72 41.88 16.34-41.88zM1093.06 192.07v6.6h-32.3v-55.62h31.53v6.6h-23.17v16.8h17.49v6.6h-17.49v19zM1132.63 198.67h-30.37v-55.62h8.36v48.79h22v6.83zM1189.32 170.59c0 17.18-12.66 29-27.39 29-15.19 0-27.39-11.28-27.39-28.54s12.66-28.93 27.39-28.93c15.19.01 27.39 11.22 27.39 28.47zm-8.67-.07c0-12.2-8.59-21.32-18.72-21.32-11.66 0-18.72 9.82-18.72 21.94s8.59 21.4 18.72 21.4c11.66-.01 18.72-9.9 18.72-22.02zM1234.72 159.09c0 12.88-11 17.34-18.49 17.34a39.22 39.22 0 0 1-8.21-.77v23h-8.36v-55.52c.84-.07 5.29-.22 9.82-.22 11.89-.02 25.24 1.29 25.24 16.17zm-8.67.15c0-8.28-7.36-10.28-13.43-10.28a28.93 28.93 0 0 0-4.6.31v19.79a22.86 22.86 0 0 0 6.83 1c4.91-.01 11.2-2.31 11.2-10.82zM1299.61 198.67h-8.13l-.84-42.19-16.8 42.57h-3.91l-17-42.5-.69 42.11h-8l1.3-55.62H1256l16.34 41.81 16.54-41.85h9.43zM1345.32 192.07v6.6H1313v-55.62h31.53v6.6h-23.17v16.8h17.49v6.6h-17.49v19zM1400.31 143.05l-.46 56.69h-4.45l-33-41.65.08 40.58h-8l.23-55.62h6l31.45 40 .23-40zM1452.53 143.05v6.83h-17.72v48.79h-8.36v-48.79h-17.72v-6.83zM911 235.09h8.36v55.62H911zM978.94 235.09l-.46 56.69H974l-33-41.65.08 40.58h-8l.23-55.62h6l31.45 40 .23-40zM1031.17 235.09v6.83h-17.72v48.79h-8.36v-48.79h-17.72v-6.83zM1071.89 284.11v6.6h-32.3v-55.62h31.53v6.6H1048v16.8h17.49v6.6H1048v19zM1120.21 285.34c-.15 1.07-1.23 6-1.23 6s-.69.07-1.69.07c-3.83 0-7.9-1.15-11.12-6.91l-9.28-16.8c-3.3 0-6-.07-7.44-.15v23.15h-8.36v-55.39s5.75-.38 12.58-.38c11.35 0 22.71 2.68 22.71 15.5 0 10-7.06 13.88-11.12 15.34 1.69 3.22 6.37 12.43 8 14.81 1.89 2.84 4.11 4.76 6.95 4.76zm-12.43-34.45c0-8-6.52-9.59-12-9.59-.46 0-3.76 0-6.29.23v19.94a39.93 39.93 0 0 0 4.76.31c5.86 0 13.53-2.45 13.53-10.89zM1175.59 235.09l-.46 56.69h-4.45l-33-41.65.08 40.58h-8l.23-55.62h6l31.45 40 .23-40zM1223.75 290.71l-6.29-17h-19.56l-5.75 17h-8.52l20.79-56.23h7.21l20.79 56.23zm-8.67-23.33l-7.83-21.32-7.25 21.32zM1273.14 235.09v6.83h-17.72v48.79h-8.36v-48.79h-17.72v-6.83zM1281.57 235.09h8.36v55.62h-8.36zM1355.05 262.63c0 17.18-12.66 29-27.39 29-15.19 0-27.39-11.28-27.39-28.54s12.66-28.93 27.39-28.93c15.19.01 27.39 11.21 27.39 28.47zm-8.67-.08c0-12.2-8.59-21.32-18.72-21.32-11.66 0-18.72 9.82-18.72 21.94s8.59 21.4 18.72 21.4c11.66-.01 18.72-9.9 18.72-22.02zM1411.19 235.09l-.46 56.69h-4.45l-33-41.65.08 40.58h-8l.23-55.62h6l31.45 40 .23-40zM1459.35 290.71l-6.29-17h-19.56l-5.75 17h-8.52l20.77-56.23h7.21l20.79 56.23zm-8.67-23.33l-7.83-21.32-7.29 21.32zM1506.44 290.71h-30.37v-55.62h8.36v48.79h22v6.83zM792.38 73.32a19.8 19.8 0 1 1 19.8 19.47 19.86 19.86 0 0 1-19.8-19.47zm36 216h-32.69V133.54h32.66zM526.35 290.83h-131V51h36.06v210.39h95v29.44zM759.27 169.4c0 80.74-53.6 121.43-127 121.43h-69.53V51h63.53c42.67 0 133 15.84 133 118.4zm-37.39.67c0-75.77-58.56-93-100.25-93-4.63 0-22.83.33-22.83.33v185.65s19.19 1 24.81 1c39.05-.05 98.27-10.94 98.27-93.98z"/></g></g></svg>